<svg width="560" height="560" viewBox="0 0 560 560" fill="none" xmlns="http://www.w3.org/2000/svg">
  <defs>
    <linearGradient id="bg" x1="80" y1="60" x2="490" y2="510" gradientUnits="userSpaceOnUse">
      <stop stop-color="#7F8DFF"/>
      <stop offset="1" stop-color="#40D9C7"/>
    </linearGradient>
    <linearGradient id="card" x1="220" y1="140" x2="390" y2="410" gradientUnits="userSpaceOnUse">
      <stop stop-color="#FFFFFF" stop-opacity="0.96"/>
      <stop offset="1" stop-color="#E7EEFF" stop-opacity="0.95"/>
    </linearGradient>
  </defs>
  <rect width="560" height="560" rx="38" fill="#10162A"/>
  <circle cx="130" cy="134" r="84" fill="#8A96FF" fill-opacity="0.35"/>
  <circle cx="454" cy="426" r="76" fill="#45D8C8" fill-opacity="0.35"/>
  <rect x="86" y="84" width="388" height="392" rx="28" fill="url(#bg)" fill-opacity="0.22" stroke="#9EA9FF" stroke-opacity="0.55" stroke-width="2"/>
  <rect x="188" y="126" width="184" height="308" rx="20" fill="url(#card)"/>
  <rect x="212" y="164" width="136" height="16" rx="8" fill="#5564E8"/>
  <rect x="212" y="192" width="108" height="12" rx="6" fill="#96A3FF"/>
  <rect x="212" y="224" width="132" height="80" rx="14" fill="#EEF2FF"/>
  <rect x="212" y="316" width="66" height="44" rx="10" fill="#DEE6FF"/>
  <rect x="282" y="316" width="66" height="44" rx="10" fill="#DEE6FF"/>
  <rect x="212" y="372" width="136" height="12" rx="6" fill="#96A3FF"/>
  <rect x="212" y="392" width="96" height="12" rx="6" fill="#B8C4FF"/>
</svg>
